<svg xmlns="http://www.w3.org/2000/svg" xmlns:xlink="http://www.w3.org/1999/xlink" width="1205" height="1006" contentScriptType="application/ecmascript" contentStyleType="text/css" preserveAspectRatio="none" version="1.1" viewBox="0 0 1205 1006" zoomAndPan="magnify" style="width:1205px;height:1006px"><defs><filter id="frt48y7" width="300%" height="300%" x="-1" y="-1"><feGaussianBlur result="blurOut" stdDeviation="2"/><feColorMatrix in="blurOut" result="blurOut2" type="matrix" values="0 0 0 0 0 0 0 0 0 0 0 0 0 0 0 0 0 0 .4 0"/><feOffset dx="4" dy="4" in="blurOut2" result="blurOut3"/><feBlend in="SourceGraphic" in2="blurOut3" mode="normal"/></filter></defs><g><polygon fill="#FFF" stroke="#000" stroke-width="2" points="530 53 657 53 664 75.488 963 75.488 963 152 530 152 530 53" filter="url(#frt48y7)"/><line x1="530" x2="664" y1="75.488" y2="75.488" stroke="#000" stroke-width="2"/><text x="534" y="68.535" fill="#000" font-family="sans-serif" font-size="14" font-weight="bold" lengthAdjust="spacingAndGlyphs" textLength="121">engine.command</text><polygon fill="#FFF" stroke="#000" stroke-width="2" points="22 24 50 24 57 46.488 480 46.488 480 181 22 181 22 24" filter="url(#frt48y7)"/><line x1="22" x2="57" y1="46.488" y2="46.488" stroke="#000" stroke-width="2"/><text x="26" y="39.535" fill="#000" font-family="sans-serif" font-size="14" font-weight="bold" lengthAdjust="spacingAndGlyphs" textLength="22">api</text><rect width="176" height="48" x="771" y="88" fill="#FEFECE" stroke="#A80036" stroke-width="1.5" filter="url(#frt48y7)"/><ellipse cx="786" cy="104" fill="#ADD1B2" stroke="#A80036" stroke-width="1" rx="11" ry="11"/><path d="M788.9731,109.6431 Q788.3921,109.9419 787.7529,110.0913 Q787.1138,110.2407 786.4082,110.2407 Q783.9014,110.2407 782.5815,108.5889 Q781.2617,106.937 781.2617,103.8159 Q781.2617,100.6865 782.5815,99.0347 Q783.9014,97.3828 786.4082,97.3828 Q787.1138,97.3828 787.7612,97.5322 Q788.4087,97.6816 788.9731,97.9805 L788.9731,100.7031 Q788.3423,100.1221 787.7488,99.8523 Q787.1553,99.5825 786.5244,99.5825 Q785.1797,99.5825 784.4949,100.6492 Q783.8101,101.7158 783.8101,103.8159 Q783.8101,105.9077 784.4949,106.9744 Q785.1797,108.041 786.5244,108.041 Q787.1553,108.041 787.7488,107.7712 Q788.3423,107.5015 788.9731,106.9204 Z"/><text x="800" y="108.535" fill="#000" font-family="sans-serif" font-size="12" lengthAdjust="spacingAndGlyphs" textLength="144">PublishDatasetCommand</text><line x1="772" x2="946" y1="120" y2="120" stroke="#A80036" stroke-width="1.5"/><line x1="772" x2="946" y1="128" y2="128" stroke="#A80036" stroke-width="1.5"/><rect width="189" height="48" x="546.5" y="88" fill="#FEFECE" stroke="#A80036" stroke-width="1.5" filter="url(#frt48y7)"/><ellipse cx="561.5" cy="104" fill="#ADD1B2" stroke="#A80036" stroke-width="1" rx="11" ry="11"/><path d="M564.4731,109.6431 Q563.8921,109.9419 563.2529,110.0913 Q562.6138,110.2407 561.9082,110.2407 Q559.4014,110.2407 558.0815,108.5889 Q556.7617,106.937 556.7617,103.8159 Q556.7617,100.6865 558.0815,99.0347 Q559.4014,97.3828 561.9082,97.3828 Q562.6138,97.3828 563.2612,97.5322 Q563.9087,97.6816 564.4731,97.9805 L564.4731,100.7031 Q563.8423,100.1221 563.2488,99.8523 Q562.6553,99.5825 562.0244,99.5825 Q560.6797,99.5825 559.9949,100.6492 Q559.3101,101.7158 559.3101,103.8159 Q559.3101,105.9077 559.9949,106.9744 Q560.6797,108.041 562.0244,108.041 Q562.6553,108.041 563.2488,107.7712 Q563.8423,107.5015 564.4731,106.9204 Z"/><text x="575.5" y="108.535" fill="#000" font-family="sans-serif" font-size="12" lengthAdjust="spacingAndGlyphs" textLength="157">ResumeWorkflowCommand</text><line x1="547.5" x2="734.5" y1="120" y2="120" stroke="#A80036" stroke-width="1.5"/><line x1="547.5" x2="734.5" y1="128" y2="128" stroke="#A80036" stroke-width="1.5"/><rect width="165" height="67.221" x="298.5" y="78.5" fill="#FEFECE" stroke="#A80036" stroke-width="1.5" filter="url(#frt48y7)"/><ellipse cx="313.5" cy="97.633" fill="#ADD1B2" stroke="#A80036" stroke-width="1" rx="11" ry="11"/><path d="M316.4731,103.2759 Q315.8921,103.5747 315.2529,103.7241 Q314.6138,103.8735 313.9082,103.8735 Q311.4014,103.8735 310.0815,102.2217 Q308.7617,100.5698 308.7617,97.4487 Q308.7617,94.3193 310.0815,92.6675 Q311.4014,91.0156 313.9082,91.0156 Q314.6138,91.0156 315.2612,91.165 Q315.9087,91.3145 316.4731,91.6133 L316.4731,94.3359 Q315.8423,93.7549 315.2488,93.4851 Q314.6553,93.2153 314.0244,93.2153 Q312.6797,93.2153 311.9949,94.282 Q311.3101,95.3486 311.3101,97.4487 Q311.3101,99.5405 311.9949,100.6072 Q312.6797,101.6738 314.0244,101.6738 Q314.6553,101.6738 315.2488,101.4041 Q315.8423,101.1343 316.4731,100.5532 Z"/><text x="362.5" y="95.102" fill="#000" font-family="sans-serif" font-size="12" font-style="italic" lengthAdjust="spacingAndGlyphs" textLength="63">«endpoint»</text><text x="327.5" y="109.234" fill="#000" font-family="sans-serif" font-size="12" lengthAdjust="spacingAndGlyphs" textLength="133">WorkflowStepResponse</text><line x1="299.5" x2="462.5" y1="116.766" y2="116.766" stroke="#A80036" stroke-width="1.5"/><text x="304.5" y="131.4" fill="#000" font-family="sans-serif" font-size="11" lengthAdjust="spacingAndGlyphs" textLength="135">POST /step/${externalId}</text><line x1="299.5" x2="462.5" y1="137.721" y2="137.721" stroke="#A80036" stroke-width="1.5"/><rect width="225" height="106.086" x="38.5" y="59" fill="#FEFECE" stroke="#A80036" stroke-width="1.5" filter="url(#frt48y7)"/><ellipse cx="53.5" cy="78.133" fill="#ADD1B2" stroke="#A80036" stroke-width="1" rx="11" ry="11"/><path d="M56.4731,83.7759 Q55.8921,84.0747 55.2529,84.2241 Q54.6138,84.3735 53.9082,84.3735 Q51.4014,84.3735 50.0815,82.7217 Q48.7617,81.0698 48.7617,77.9487 Q48.7617,74.8193 50.0815,73.1675 Q51.4014,71.5156 53.9082,71.5156 Q54.6138,71.5156 55.2612,71.665 Q55.9087,71.8145 56.4731,72.1133 L56.4731,74.8359 Q55.8423,74.2549 55.2488,73.9851 Q54.6553,73.7153 54.0244,73.7153 Q52.6797,73.7153 51.9949,74.782 Q51.3101,75.8486 51.3101,77.9487 Q51.3101,80.0405 51.9949,81.1072 Q52.6797,82.1738 54.0244,82.1738 Q54.6553,82.1738 55.2488,81.9041 Q55.8423,81.6343 56.4731,81.0532 Z"/><text x="132.5" y="75.602" fill="#000" font-family="sans-serif" font-size="12" font-style="italic" lengthAdjust="spacingAndGlyphs" textLength="63">«endpoint»</text><text x="67.5" y="89.734" fill="#000" font-family="sans-serif" font-size="12" lengthAdjust="spacingAndGlyphs" textLength="193">WorkflowManagementEndpoint ✅</text><line x1="39.5" x2="262.5" y1="97.266" y2="97.266" stroke="#A80036" stroke-width="1.5"/><text x="44.5" y="111.9" fill="#000" font-family="sans-serif" font-size="11" lengthAdjust="spacingAndGlyphs" textLength="51">POST add</text><text x="44.5" y="124.856" fill="#000" font-family="sans-serif" font-size="11" lengthAdjust="spacingAndGlyphs" textLength="40">GET list</text><text x="44.5" y="137.81" fill="#000" font-family="sans-serif" font-size="11" lengthAdjust="spacingAndGlyphs" textLength="52">DELETE id</text><text x="44.5" y="150.766" fill="#000" font-family="sans-serif" font-size="11" lengthAdjust="spacingAndGlyphs" textLength="123">GET pendingWorkflows</text><line x1="39.5" x2="262.5" y1="157.086" y2="157.086" stroke="#A80036" stroke-width="1.5"/><rect width="101" height="54.266" x="426.5" y="822" fill="#FEFECE" stroke="#A80036" stroke-width="1.5" filter="url(#frt48y7)"/><ellipse cx="441.5" cy="841.133" fill="#ADD1B2" stroke="#A80036" stroke-width="1" rx="11" ry="11"/><path d="M444.4731,846.7759 Q443.8921,847.0747 443.2529,847.2241 Q442.6138,847.3735 441.9082,847.3735 Q439.4014,847.3735 438.0815,845.7217 Q436.7617,844.0698 436.7617,840.9487 Q436.7617,837.8193 438.0815,836.1675 Q439.4014,834.5156 441.9082,834.5156 Q442.6138,834.5156 443.2612,834.665 Q443.9087,834.8145 444.4731,835.1133 L444.4731,837.8359 Q443.8423,837.2549 443.2488,836.9851 Q442.6553,836.7153 442.0244,836.7153 Q440.6797,836.7153 439.9949,837.782 Q439.3101,838.8486 439.3101,840.9487 Q439.3101,843.0405 439.9949,844.1072 Q440.6797,845.1738 442.0244,845.1738 Q442.6553,845.1738 443.2488,844.9041 Q443.8423,844.6343 444.4731,844.0532 Z"/><text x="468.5" y="838.602" fill="#000" font-family="sans-serif" font-size="12" font-style="italic" lengthAdjust="spacingAndGlyphs" textLength="43">«entity»</text><text x="455.5" y="852.734" fill="#000" font-family="sans-serif" font-size="12" lengthAdjust="spacingAndGlyphs" textLength="69">DvObject ✅</text><line x1="427.5" x2="526.5" y1="860.266" y2="860.266" stroke="#A80036" stroke-width="1.5"/><line x1="427.5" x2="526.5" y1="868.266" y2="868.266" stroke="#A80036" stroke-width="1.5"/><rect width="156" height="54.266" x="464" y="671.5" fill="#FEFECE" stroke="#A80036" stroke-width="1.5" filter="url(#frt48y7)"/><ellipse cx="479" cy="690.633" fill="#ADD1B2" stroke="#A80036" stroke-width="1" rx="11" ry="11"/><path d="M481.9731,696.2759 Q481.3921,696.5747 480.7529,696.7241 Q480.1138,696.8735 479.4082,696.8735 Q476.9014,696.8735 475.5815,695.2217 Q474.2617,693.5698 474.2617,690.4487 Q474.2617,687.3193 475.5815,685.6675 Q476.9014,684.0156 479.4082,684.0156 Q480.1138,684.0156 480.7612,684.165 Q481.4087,684.3145 481.9731,684.6133 L481.9731,687.3359 Q481.3423,686.7549 480.7488,686.4851 Q480.1553,686.2153 479.5244,686.2153 Q478.1797,686.2153 477.4949,687.282 Q476.8101,688.3486 476.8101,690.4487 Q476.8101,692.5405 477.4949,693.6072 Q478.1797,694.6738 479.5244,694.6738 Q480.1553,694.6738 480.7488,694.4041 Q481.3423,694.1343 481.9731,693.5532 Z"/><text x="533.5" y="688.102" fill="#000" font-family="sans-serif" font-size="12" font-style="italic" lengthAdjust="spacingAndGlyphs" textLength="43">«entity»</text><text x="493" y="702.234" fill="#000" font-family="sans-serif" font-size="12" lengthAdjust="spacingAndGlyphs" textLength="124">DvObjectContainer ✅</text><line x1="465" x2="619" y1="709.766" y2="709.766" stroke="#A80036" stroke-width="1.5"/><line x1="465" x2="619" y1="717.766" y2="717.766" stroke="#A80036" stroke-width="1.5"/><rect width="106" height="54.266" x="563" y="822" fill="#FEFECE" stroke="#A80036" stroke-width="1.5" filter="url(#frt48y7)"/><ellipse cx="578" cy="841.133" fill="#ADD1B2" stroke="#A80036" stroke-width="1" rx="11" ry="11"/><path d="M580.9731,846.7759 Q580.3921,847.0747 579.7529,847.2241 Q579.1138,847.3735 578.4082,847.3735 Q575.9014,847.3735 574.5815,845.7217 Q573.2617,844.0698 573.2617,840.9487 Q573.2617,837.8193 574.5815,836.1675 Q575.9014,834.5156 578.4082,834.5156 Q579.1138,834.5156 579.7612,834.665 Q580.4087,834.8145 580.9731,835.1133 L580.9731,837.8359 Q580.3423,837.2549 579.7488,836.9851 Q579.1553,836.7153 578.5244,836.7153 Q577.1797,836.7153 576.4949,837.782 Q575.8101,838.8486 575.8101,840.9487 Q575.8101,843.0405 576.4949,844.1072 Q577.1797,845.1738 578.5244,845.1738 Q579.1553,845.1738 579.7488,844.9041 Q580.3423,844.6343 580.9731,844.0532 Z"/><text x="607.5" y="838.602" fill="#000" font-family="sans-serif" font-size="12" font-style="italic" lengthAdjust="spacingAndGlyphs" textLength="43">«entity»</text><text x="592" y="852.734" fill="#000" font-family="sans-serif" font-size="12" lengthAdjust="spacingAndGlyphs" textLength="74">Dataverse ✅</text><line x1="564" x2="668" y1="860.266" y2="860.266" stroke="#A80036" stroke-width="1.5"/><line x1="564" x2="668" y1="868.266" y2="868.266" stroke="#A80036" stroke-width="1.5"/><rect width="76" height="54.266" x="504" y="491.5" fill="#FEFECE" stroke="#A80036" stroke-width="1.5" filter="url(#frt48y7)"/><ellipse cx="519" cy="510.633" fill="#ADD1B2" stroke="#A80036" stroke-width="1" rx="11" ry="11"/><path d="M521.9731,516.2759 Q521.3921,516.5747 520.7529,516.7241 Q520.1138,516.8735 519.4082,516.8735 Q516.9014,516.8735 515.5815,515.2217 Q514.2617,513.5698 514.2617,510.4487 Q514.2617,507.3193 515.5815,505.6675 Q516.9014,504.0156 519.4082,504.0156 Q520.1138,504.0156 520.7612,504.165 Q521.4087,504.3145 521.9731,504.6133 L521.9731,507.3359 Q521.3423,506.7549 520.7488,506.4851 Q520.1553,506.2153 519.5244,506.2153 Q518.1797,506.2153 517.4949,507.282 Q516.8101,508.3486 516.8101,510.4487 Q516.8101,512.5405 517.4949,513.6072 Q518.1797,514.6738 519.5244,514.6738 Q520.1553,514.6738 520.7488,514.4041 Q521.3423,514.1343 521.9731,513.5532 Z"/><text x="533.5" y="508.102" fill="#000" font-family="sans-serif" font-size="12" font-style="italic" lengthAdjust="spacingAndGlyphs" textLength="43">«entity»</text><text x="533" y="522.234" fill="#000" font-family="sans-serif" font-size="12" lengthAdjust="spacingAndGlyphs" textLength="44">Dataset</text><line x1="505" x2="579" y1="529.766" y2="529.766" stroke="#A80036" stroke-width="1.5"/><line x1="505" x2="579" y1="537.766" y2="537.766" stroke="#A80036" stroke-width="1.5"/><rect width="100" height="93.131" x="615" y="472" fill="#FEFECE" stroke="#A80036" stroke-width="1.5" filter="url(#frt48y7)"/><ellipse cx="630" cy="491.133" fill="#ADD1B2" stroke="#A80036" stroke-width="1" rx="11" ry="11"/><path d="M632.9731,496.7759 Q632.3921,497.0747 631.7529,497.2241 Q631.1138,497.3735 630.4082,497.3735 Q627.9014,497.3735 626.5815,495.7217 Q625.2617,494.0698 625.2617,490.9487 Q625.2617,487.8193 626.5815,486.1675 Q627.9014,484.5156 630.4082,484.5156 Q631.1138,484.5156 631.7612,484.665 Q632.4087,484.8145 632.9731,485.1133 L632.9731,487.8359 Q632.3423,487.2549 631.7488,486.9851 Q631.1553,486.7153 630.5244,486.7153 Q629.1797,486.7153 628.4949,487.782 Q627.8101,488.8486 627.8101,490.9487 Q627.8101,493.0405 628.4949,494.1072 Q629.1797,495.1738 630.5244,495.1738 Q631.1553,495.1738 631.7488,494.9041 Q632.3423,494.6343 632.9731,494.0532 Z"/><text x="656.5" y="488.602" fill="#000" font-family="sans-serif" font-size="12" font-style="italic" lengthAdjust="spacingAndGlyphs" textLength="43">«entity»</text><text x="644" y="502.734" fill="#000" font-family="sans-serif" font-size="12" lengthAdjust="spacingAndGlyphs" textLength="68">Workflow ✅</text><line x1="616" x2="714" y1="510.266" y2="510.266" stroke="#A80036" stroke-width="1.5"/><text x="621" y="524.9" fill="#000" font-family="sans-serif" font-size="11" lengthAdjust="spacingAndGlyphs" textLength="10">id</text><text x="621" y="537.856" fill="#000" font-family="sans-serif" font-size="11" lengthAdjust="spacingAndGlyphs" textLength="29">name</text><text x="621" y="550.811" fill="#000" font-family="sans-serif" font-size="11" lengthAdjust="spacingAndGlyphs" textLength="61">description</text><line x1="616" x2="714" y1="557.131" y2="557.131" stroke="#A80036" stroke-width="1.5"/><rect width="186" height="93.131" x="211" y="652" fill="#FEFECE" stroke="#A80036" stroke-width="1.5" filter="url(#frt48y7)"/><ellipse cx="241.3" cy="671.133" fill="#ADD1B2" stroke="#A80036" stroke-width="1" rx="11" ry="11"/><path d="M244.2731,676.7759 Q243.6921,677.0747 243.0529,677.2241 Q242.4138,677.3735 241.7082,677.3735 Q239.2014,677.3735 237.8815,675.7217 Q236.5617,674.0698 236.5617,670.9487 Q236.5617,667.8193 237.8815,666.1675 Q239.2014,664.5156 241.7082,664.5156 Q242.4138,664.5156 243.0612,664.665 Q243.7087,664.8145 244.2731,665.1133 L244.2731,667.8359 Q243.6423,667.2549 243.0488,666.9851 Q242.4553,666.7153 241.8244,666.7153 Q240.4797,666.7153 239.7949,667.782 Q239.1101,668.8486 239.1101,670.9487 Q239.1101,673.0405 239.7949,674.1072 Q240.4797,675.1738 241.8244,675.1738 Q242.4553,675.1738 243.0488,674.9041 Q243.6423,674.6343 244.2731,674.0532 Z"/><text x="297.2" y="668.602" fill="#000" font-family="sans-serif" font-size="12" font-style="italic" lengthAdjust="spacingAndGlyphs" textLength="43">«entity»</text><text x="258.7" y="682.734" fill="#000" font-family="sans-serif" font-size="12" lengthAdjust="spacingAndGlyphs" textLength="120">WorkflowStepData ✅</text><line x1="212" x2="396" y1="690.266" y2="690.266" stroke="#A80036" stroke-width="1.5"/><text x="217" y="704.9" fill="#000" font-family="sans-serif" font-size="11" lengthAdjust="spacingAndGlyphs" textLength="94">providerId: String</text><text x="217" y="717.856" fill="#000" font-family="sans-serif" font-size="11" lengthAdjust="spacingAndGlyphs" textLength="71">stepId: String</text><text x="217" y="730.811" fill="#000" font-family="sans-serif" font-size="11" lengthAdjust="spacingAndGlyphs" textLength="174">parameters: Map&lt;String,String&gt;</text><line x1="212" x2="396" y1="737.131" y2="737.131" stroke="#A80036" stroke-width="1.5"/><rect width="180" height="140.951" x="916" y="244" fill="#FEFECE" stroke="#A80036" stroke-width="1.5" filter="url(#frt48y7)"/><ellipse cx="931" cy="263.133" fill="#ADD1B2" stroke="#A80036" stroke-width="1" rx="11" ry="11"/><path d="M933.9731,268.7759 Q933.3921,269.0747 932.7529,269.2241 Q932.1138,269.3735 931.4082,269.3735 Q928.9014,269.3735 927.5815,267.7217 Q926.2617,266.0698 926.2617,262.9487 Q926.2617,259.8193 927.5815,258.1675 Q928.9014,256.5156 931.4082,256.5156 Q932.1138,256.5156 932.7612,256.665 Q933.4087,256.8145 933.9731,257.1133 L933.9731,259.8359 Q933.3423,259.2549 932.7488,258.9851 Q932.1553,258.7153 931.5244,258.7153 Q930.1797,258.7153 929.4949,259.782 Q928.8101,260.8486 928.8101,262.9487 Q928.8101,265.0405 929.4949,266.1072 Q930.1797,267.1738 931.5244,267.1738 Q932.1553,267.1738 932.7488,266.9041 Q933.3423,266.6343 933.9731,266.0532 Z"/><text x="964.5" y="260.602" fill="#000" font-family="sans-serif" font-size="12" font-style="italic" lengthAdjust="spacingAndGlyphs" textLength="41">«bean»</text><text x="945" y="274.734" fill="#000" font-family="sans-serif" font-size="12" lengthAdjust="spacingAndGlyphs" textLength="80">WorkflowBean</text><rect width="66" height="16.133" x="1033" y="241" fill="#FFF" stroke="#000" stroke-dasharray="2 2" stroke-width="1"/><text x="1034" y="253.602" fill="#000" font-family="sans-serif" font-size="12" font-style="italic" lengthAdjust="spacingAndGlyphs" textLength="64">In Progress</text><line x1="917" x2="1095" y1="282.266" y2="282.266" stroke="#A80036" stroke-width="1.5"/><text x="922" y="296.9" fill="#000" font-family="sans-serif" font-size="11" lengthAdjust="spacingAndGlyphs" textLength="80">getWorkflows()</text><text x="922" y="309.856" fill="#000" font-family="sans-serif" font-size="11" lengthAdjust="spacingAndGlyphs" textLength="84">getWorkflow(id)</text><text x="922" y="322.81" fill="#000" font-family="sans-serif" font-size="11" lengthAdjust="spacingAndGlyphs" textLength="99">deleteWorkflow(id)</text><text x="922" y="335.766" fill="#000" font-family="sans-serif" font-size="11" lengthAdjust="spacingAndGlyphs" textLength="89">saveWorkflow(w)</text><text x="922" y="348.721" fill="#000" font-family="sans-serif" font-size="11" lengthAdjust="spacingAndGlyphs" textLength="116">resumeWorkflow(pwf)</text><text x="922" y="378.631" fill="#000" font-family="sans-serif" font-size="11" lengthAdjust="spacingAndGlyphs" textLength="103">getStepProvider(id)</text><line x1="917" x2="955" y1="361.519" y2="361.519" stroke="#A80036" stroke-dasharray="1 2" stroke-width="1"/><text x="955" y="365.176" fill="#000" font-family="sans-serif" font-size="11" lengthAdjust="spacingAndGlyphs" textLength="102">. not implemented .</text><line x1="1057" x2="1095" y1="361.519" y2="361.519" stroke="#A80036" stroke-dasharray="1 2" stroke-width="1"/><rect width="144" height="112.775" x="325" y="462" fill="#FEFECE" stroke="#A80036" stroke-width="1.5" filter="url(#frt48y7)"/><ellipse cx="340" cy="478" fill="#ADD1B2" stroke="#A80036" stroke-width="1" rx="11" ry="11"/><path d="M342.9731,483.6431 Q342.3921,483.9419 341.7529,484.0913 Q341.1138,484.2407 340.4082,484.2407 Q337.9014,484.2407 336.5815,482.5889 Q335.2617,480.937 335.2617,477.8159 Q335.2617,474.6865 336.5815,473.0347 Q337.9014,471.3828 340.4082,471.3828 Q341.1138,471.3828 341.7612,471.5322 Q342.4087,471.6816 342.9731,471.9805 L342.9731,474.7031 Q342.3423,474.1221 341.7488,473.8523 Q341.1553,473.5825 340.5244,473.5825 Q339.1797,473.5825 338.4949,474.6492 Q337.8101,475.7158 337.8101,477.8159 Q337.8101,479.9077 338.4949,480.9744 Q339.1797,482.041 340.5244,482.041 Q341.1553,482.041 341.7488,481.7712 Q342.3423,481.5015 342.9731,480.9204 Z"/><text x="354" y="482.535" fill="#000" font-family="sans-serif" font-size="12" lengthAdjust="spacingAndGlyphs" textLength="112">WorkflowContext ✅</text><line x1="326" x2="468" y1="494" y2="494" stroke="#A80036" stroke-width="1.5"/><text x="331" y="508.635" fill="#000" font-family="sans-serif" font-size="11" lengthAdjust="spacingAndGlyphs" textLength="104">r:DataverseRequest</text><text x="331" y="521.59" fill="#000" font-family="sans-serif" font-size="11" lengthAdjust="spacingAndGlyphs" textLength="50">d:Dataset</text><text x="331" y="534.545" fill="#000" font-family="sans-serif" font-size="11" lengthAdjust="spacingAndGlyphs" textLength="96">invocationId:UUID</text><text x="331" y="547.5" fill="#000" font-family="sans-serif" font-size="11" lengthAdjust="spacingAndGlyphs" textLength="64">versionData</text><line x1="326" x2="468" y1="553.82" y2="553.82" stroke="#A80036" stroke-width="1.5"/><text x="331" y="568.455" fill="#000" font-family="sans-serif" font-size="11" lengthAdjust="spacingAndGlyphs" textLength="88">isMinorRelease()</text><rect width="181" height="131.996" x="290.5" y="248.5" fill="#FEFECE" stroke="#A80036" stroke-width="1.5" filter="url(#frt48y7)"/><ellipse cx="321.25" cy="267.633" fill="#ADD1B2" stroke="#A80036" stroke-width="1" rx="11" ry="11"/><path d="M324.2231,273.2759 Q323.6421,273.5747 323.0029,273.7241 Q322.3638,273.8735 321.6582,273.8735 Q319.1514,273.8735 317.8315,272.2217 Q316.5117,270.5698 316.5117,267.4487 Q316.5117,264.3193 317.8315,262.6675 Q319.1514,261.0156 321.6582,261.0156 Q322.3638,261.0156 323.0112,261.165 Q323.6587,261.3145 324.2231,261.6133 L324.2231,264.3359 Q323.5923,263.7549 322.9988,263.4851 Q322.4053,263.2153 321.7744,263.2153 Q320.4297,263.2153 319.7449,264.282 Q319.0601,265.3486 319.0601,267.4487 Q319.0601,269.5405 319.7449,270.6072 Q320.4297,271.6738 321.7744,271.6738 Q322.4053,271.6738 322.9988,271.4041 Q323.5923,271.1343 324.2231,270.5532 Z"/><text x="374.25" y="265.102" fill="#000" font-family="sans-serif" font-size="12" font-style="italic" lengthAdjust="spacingAndGlyphs" textLength="43">«entity»</text><text x="338.75" y="279.234" fill="#000" font-family="sans-serif" font-size="12" lengthAdjust="spacingAndGlyphs" textLength="114">PendingWorkflow ✅</text><line x1="291.5" x2="470.5" y1="286.766" y2="286.766" stroke="#A80036" stroke-width="1.5"/><text x="296.5" y="301.4" fill="#000" font-family="sans-serif" font-size="11" lengthAdjust="spacingAndGlyphs" textLength="87">externalId: UUID</text><text x="296.5" y="314.356" fill="#000" font-family="sans-serif" font-size="11" lengthAdjust="spacingAndGlyphs" textLength="103">workflow: Workflow</text><text x="296.5" y="327.31" fill="#000" font-family="sans-serif" font-size="11" lengthAdjust="spacingAndGlyphs" textLength="169">pendingStep: WorkflowStepData</text><text x="296.5" y="340.266" fill="#000" font-family="sans-serif" font-size="11" lengthAdjust="spacingAndGlyphs" textLength="86">localData: DATA</text><text x="296.5" y="353.221" fill="#000" font-family="sans-serif" font-size="11" lengthAdjust="spacingAndGlyphs" textLength="143">request: DataverseRequest</text><text x="296.5" y="366.176" fill="#000" font-family="sans-serif" font-size="11" lengthAdjust="spacingAndGlyphs" textLength="85">dataset: Dataset</text><line x1="291.5" x2="470.5" y1="372.496" y2="372.496" stroke="#A80036" stroke-width="1.5"/><rect width="186" height="73.91" x="913" y="481.5" fill="#FEFECE" stroke="#A80036" stroke-width="1.5" filter="url(#frt48y7)"/><ellipse cx="948.25" cy="497.5" fill="#B4A7E5" stroke="#A80036" stroke-width="1" rx="11" ry="11"/><path d="M944.1777,493.2651 L944.1777,491.1069 L951.5571,491.1069 L951.5571,493.2651 L949.0918,493.2651 L949.0918,501.3418 L951.5571,501.3418 L951.5571,503.5 L944.1777,503.5 L944.1777,501.3418 L946.6431,501.3418 L946.6431,493.2651 Z"/><text x="966.75" y="502.035" fill="#000" font-family="sans-serif" font-size="12" font-style="italic" lengthAdjust="spacingAndGlyphs" textLength="109">WorkflowStepSPI ✅</text><line x1="914" x2="1098" y1="513.5" y2="513.5" stroke="#A80036" stroke-width="1.5"/><text x="919" y="528.135" fill="#000" font-family="sans-serif" font-size="11" lengthAdjust="spacingAndGlyphs" textLength="10">id</text><line x1="914" x2="1098" y1="534.455" y2="534.455" stroke="#A80036" stroke-width="1.5"/><text x="919" y="549.09" fill="#000" font-family="sans-serif" font-size="11" lengthAdjust="spacingAndGlyphs" textLength="174">getStep(stepId, parameters):Step</text><rect width="269" height="86.865" x="871.5" y="655" fill="#FEFECE" stroke="#A80036" stroke-width="1.5" filter="url(#frt48y7)"/><ellipse cx="955.25" cy="671" fill="#B4A7E5" stroke="#A80036" stroke-width="1" rx="11" ry="11"/><path d="M951.1777,666.7651 L951.1777,664.6069 L958.5571,664.6069 L958.5571,666.7651 L956.0918,666.7651 L956.0918,674.8418 L958.5571,674.8418 L958.5571,677 L951.1777,677 L951.1777,674.8418 L953.6431,674.8418 L953.6431,666.7651 Z"/><text x="975.75" y="675.535" fill="#000" font-family="sans-serif" font-size="12" font-style="italic" lengthAdjust="spacingAndGlyphs" textLength="93">WorkflowStep ✅</text><line x1="872.5" x2="1139.5" y1="687" y2="687" stroke="#A80036" stroke-width="1.5"/><line x1="872.5" x2="1139.5" y1="695" y2="695" stroke="#A80036" stroke-width="1.5"/><text x="877.5" y="709.635" fill="#000" font-family="sans-serif" font-size="11" lengthAdjust="spacingAndGlyphs" textLength="236">run( WorkflowContext ): WorkflowStepResult</text><text x="877.5" y="722.59" fill="#000" font-family="sans-serif" font-size="11" lengthAdjust="spacingAndGlyphs" textLength="257">resume( WorkflowContext ): WorkflowStepResult</text><text x="877.5" y="735.545" fill="#000" font-family="sans-serif" font-size="11" lengthAdjust="spacingAndGlyphs" textLength="152">rollback( WorkflowContext )</text><rect width="160" height="54.266" x="926" y="822" fill="#FEFECE" stroke="#A80036" stroke-width="1.5" filter="url(#frt48y7)"/><ellipse cx="941" cy="841.133" fill="#ADD1B2" stroke="#A80036" stroke-width="1" rx="11" ry="11"/><path d="M943.9731,846.7759 Q943.3921,847.0747 942.7529,847.2241 Q942.1138,847.3735 941.4082,847.3735 Q938.9014,847.3735 937.5815,845.7217 Q936.2617,844.0698 936.2617,840.9487 Q936.2617,837.8193 937.5815,836.1675 Q938.9014,834.5156 941.4082,834.5156 Q942.1138,834.5156 942.7612,834.665 Q943.4087,834.8145 943.9731,835.1133 L943.9731,837.8359 Q943.3423,837.2549 942.7488,836.9851 Q942.1553,836.7153 941.5244,836.7153 Q940.1797,836.7153 939.4949,837.782 Q938.8101,838.8486 938.8101,840.9487 Q938.8101,843.0405 939.4949,844.1072 Q940.1797,845.1738 941.5244,845.1738 Q942.1553,845.1738 942.7488,844.9041 Q943.3423,844.6343 943.9731,844.0532 Z"/><text x="989.5" y="838.602" fill="#000" font-family="sans-serif" font-size="12" font-style="italic" lengthAdjust="spacingAndGlyphs" textLength="59">«abstract»</text><text x="955" y="852.734" fill="#000" font-family="sans-serif" font-size="12" lengthAdjust="spacingAndGlyphs" textLength="128">WorkflowStepResult ✅</text><line x1="927" x2="1085" y1="860.266" y2="860.266" stroke="#A80036" stroke-width="1.5"/><line x1="927" x2="1085" y1="868.266" y2="868.266" stroke="#A80036" stroke-width="1.5"/><rect width="91" height="54.266" x="832.5" y="940.5" fill="#FEFECE" stroke="#A80036" stroke-width="1.5" filter="url(#frt48y7)"/><ellipse cx="847.5" cy="959.633" fill="#ADD1B2" stroke="#A80036" stroke-width="1" rx="11" ry="11"/><path d="M850.4731,965.2759 Q849.8921,965.5747 849.2529,965.7241 Q848.6138,965.8735 847.9082,965.8735 Q845.4014,965.8735 844.0815,964.2217 Q842.7617,962.5698 842.7617,959.4487 Q842.7617,956.3193 844.0815,954.6675 Q845.4014,953.0156 847.9082,953.0156 Q848.6138,953.0156 849.2612,953.165 Q849.9087,953.3145 850.4731,953.6133 L850.4731,956.3359 Q849.8423,955.7549 849.2488,955.4851 Q848.6553,955.2153 848.0244,955.2153 Q846.6797,955.2153 845.9949,956.282 Q845.3101,957.3486 845.3101,959.4487 Q845.3101,961.5405 845.9949,962.6072 Q846.6797,963.6738 848.0244,963.6738 Q848.6553,963.6738 849.2488,963.4041 Q849.8423,963.1343 850.4731,962.5532 Z"/><text x="859.5" y="957.102" fill="#000" font-family="sans-serif" font-size="12" font-style="italic" lengthAdjust="spacingAndGlyphs" textLength="63">«singleton»</text><text x="874.5" y="971.234" fill="#000" font-family="sans-serif" font-size="12" lengthAdjust="spacingAndGlyphs" textLength="33">OK ✅</text><line x1="833.5" x2="922.5" y1="978.766" y2="978.766" stroke="#A80036" stroke-width="1.5"/><line x1="833.5" x2="922.5" y1="986.766" y2="986.766" stroke="#A80036" stroke-width="1.5"/><rect width="94" height="60.955" x="959" y="937" fill="#FEFECE" stroke="#A80036" stroke-width="1.5" filter="url(#frt48y7)"/><ellipse cx="974" cy="953" fill="#ADD1B2" stroke="#A80036" stroke-width="1" rx="11" ry="11"/><path d="M976.9731,958.6431 Q976.3921,958.9419 975.7529,959.0913 Q975.1138,959.2407 974.4082,959.2407 Q971.9014,959.2407 970.5815,957.5889 Q969.2617,955.937 969.2617,952.8159 Q969.2617,949.6865 970.5815,948.0347 Q971.9014,946.3828 974.4082,946.3828 Q975.1138,946.3828 975.7612,946.5322 Q976.4087,946.6816 976.9731,946.9805 L976.9731,949.7031 Q976.3423,949.1221 975.7488,948.8523 Q975.1553,948.5825 974.5244,948.5825 Q973.1797,948.5825 972.4949,949.6492 Q971.8101,950.7158 971.8101,952.8159 Q971.8101,954.9077 972.4949,955.9744 Q973.1797,957.041 974.5244,957.041 Q975.1553,957.041 975.7488,956.7712 Q976.3423,956.5015 976.9731,955.9204 Z"/><text x="988" y="957.535" fill="#000" font-family="sans-serif" font-size="12" lengthAdjust="spacingAndGlyphs" textLength="62">Pending ✅</text><line x1="960" x2="1052" y1="969" y2="969" stroke="#A80036" stroke-width="1.5"/><text x="965" y="983.635" fill="#000" font-family="sans-serif" font-size="11" lengthAdjust="spacingAndGlyphs" textLength="49">localData</text><line x1="960" x2="1052" y1="989.955" y2="989.955" stroke="#A80036" stroke-width="1.5"/><rect width="108" height="60.955" x="1088" y="937" fill="#FEFECE" stroke="#A80036" stroke-width="1.5" filter="url(#frt48y7)"/><ellipse cx="1112.9" cy="953" fill="#ADD1B2" stroke="#A80036" stroke-width="1" rx="11" ry="11"/><path d="M1115.8731,958.6431 Q1115.2921,958.9419 1114.6529,959.0913 Q1114.0138,959.2407 1113.3082,959.2407 Q1110.8014,959.2407 1109.4815,957.5889 Q1108.1617,955.937 1108.1617,952.8159 Q1108.1617,949.6865 1109.4815,948.0347 Q1110.8014,946.3828 1113.3082,946.3828 Q1114.0138,946.3828 1114.6612,946.5322 Q1115.3087,946.6816 1115.8731,946.9805 L1115.8731,949.7031 Q1115.2423,949.1221 1114.6488,948.8523 Q1114.0553,948.5825 1113.4244,948.5825 Q1112.0797,948.5825 1111.3949,949.6492 Q1110.7101,950.7158 1110.7101,952.8159 Q1110.7101,954.9077 1111.3949,955.9744 Q1112.0797,957.041 1113.4244,957.041 Q1114.0553,957.041 1114.6488,956.7712 Q1115.2423,956.5015 1115.8731,955.9204 Z"/><text x="1129.1" y="957.535" fill="#000" font-family="sans-serif" font-size="12" lengthAdjust="spacingAndGlyphs" textLength="54">Failure ✅</text><line x1="1089" x2="1195" y1="969" y2="969" stroke="#A80036" stroke-width="1.5"/><text x="1094" y="983.635" fill="#000" font-family="sans-serif" font-size="11" lengthAdjust="spacingAndGlyphs" textLength="96">reason:Throwable</text><line x1="1089" x2="1195" y1="989.955" y2="989.955" stroke="#A80036" stroke-width="1.5"/><path fill="none" stroke="#A80036" stroke-width="1" d="M542,545.8381 C542,573.7522 542,617.6317 542,651.1976"/><polygon fill="none" stroke="#A80036" stroke-width="1" points="549 651.494 542 671.494 535 651.494 549 651.494"/><path fill="none" stroke="#A80036" stroke-width="1" d="M538.6506,725.6762 C535.5665,744.8826 529.9166,770.8644 520,792 C517.9342,796.4029 515.4916,800.7951 512.8362,805.0764"/><polygon fill="none" stroke="#A80036" stroke-width="1" points="518.342 809.418 501.143 821.795 506.87 801.394 518.342 809.418"/><path fill="none" stroke="#A80036" stroke-width="1" d="M466.4821,808.6464 C465.3388,797.4474 465.84,785.4897 470,775 C475.9356,760.0329 486.3397,746.2911 497.4246,734.7095"/><polygon fill="#A80036" stroke="#A80036" stroke-width="1" points="506.813 725.51 497.585 728.952 503.242 729.009 503.184 734.666 506.813 725.51"/><line x1="503.242" x2="497.528" y1="729.009" y2="734.608" stroke="#A80036" stroke-width="1"/><polygon fill="#FFF" stroke="#A80036" stroke-width="1" points="468.557 821.781 471.572 815.23 466.684 809.928 463.67 816.478 468.557 821.781"/><text x="471" y="788.568" fill="#000" font-family="sans-serif" font-size="13" lengthAdjust="spacingAndGlyphs" textLength="40">parent</text><path fill="none" stroke="#A80036" stroke-width="1" d="M564.3328,743.9201 C576.8502,769.3779 592.0399,800.2703 602.6989,821.9483"/><polygon fill="none" stroke="#A80036" stroke-width="1" points="557.944 746.791 555.401 725.754 570.507 740.614 557.944 746.791"/><path fill="none" stroke="#A80036" stroke-width="1" d="M961.8457,889.8772 C943.7853,906.5972 923.3849,925.4835 907.2291,940.4402"/><polygon fill="none" stroke="#A80036" stroke-width="1" points="957.202 884.637 976.634 876.186 966.713 894.91 957.202 884.637"/><path fill="none" stroke="#A80036" stroke-width="1" d="M1006,896.3684 C1006,909.9411 1006,924.3813 1006,936.6797"/><polygon fill="none" stroke="#A80036" stroke-width="1" points="999 896.186 1006 876.186 1013 896.186 999 896.186"/><path fill="none" stroke="#A80036" stroke-width="1" d="M1052.4037,889.4326 C1070.146,904.892 1090.0772,922.2584 1106.6282,936.6797"/><polygon fill="none" stroke="#A80036" stroke-width="1" points="1047.682 894.603 1037.201 876.186 1056.879 884.047 1047.682 894.603"/><path fill="none" stroke="#A80036" stroke-width="1" d="M482.9515,380.6317 C519.7911,405.3512 561.3227,434.1881 598,462 C600.1786,463.652 602.3814,465.3504 604.5943,467.0806"/><polygon fill="#A80036" stroke="#A80036" stroke-width="1" points="614.971 475.355 610.428 466.616 611.062 472.238 605.441 472.871 614.971 475.355"/><line x1="611.062" x2="604.807" y1="472.238" y2="467.25" stroke="#A80036" stroke-width="1"/><polygon fill="#FFF" stroke="#A80036" stroke-width="1" points="471.68 373.098 474.445 379.758 481.656 379.766 478.891 373.106 471.68 373.098"/><path fill="none" stroke="#A80036" stroke-width="1" d="M333.6903,392.5001 C322.8065,414.2451 312.7475,438.3956 307,462 C292.6594,520.8959 293.8601,590.5086 297.447,638.8945"/><polygon fill="#A80036" stroke="#A80036" stroke-width="1" points="298.511 651.952 301.767 642.657 298.105 646.969 293.793 643.307 298.511 651.952"/><line x1="298.105" x2="297.455" y1="646.969" y2="638.995" stroke="#A80036" stroke-width="1"/><polygon fill="#FFF" stroke="#A80036" stroke-width="1" points="339.8 380.686 333.49 384.178 334.288 391.345 340.597 387.853 339.8 380.686"/><path fill="none" stroke="#A80036" stroke-width="1" d="M448.273,390.7323 C455.0411,398.8394 461.7253,407.0328 468,415 C484.6433,436.1325 502.1974,460.5802 516.0296,480.4071"/><polygon fill="#A80036" stroke="#A80036" stroke-width="1" points="523.505 491.191 521.665 481.515 520.656 487.082 515.09 486.073 523.505 491.191"/><line x1="520.656" x2="516.099" y1="487.082" y2="480.507" stroke="#A80036" stroke-width="1"/><polygon fill="#FFF" stroke="#A80036" stroke-width="1" points="439.68 380.533 440.487 387.699 447.412 389.71 446.605 382.544 439.68 380.533"/><path fill="none" stroke="#A80036" stroke-width="1" d="M603.7541,571.3299 C601.8387,572.5994 599.9184,573.8261 598,575 C538.9374,611.1413 467.41,641.4468 409.6955,662.992"/><polygon fill="#A80036" stroke="#A80036" stroke-width="1" points="397.225 667.592 407.053 668.23 401.916 665.862 404.284 660.725 397.225 667.592"/><line x1="401.916" x2="409.421" y1="665.862" y2="663.093" stroke="#A80036" stroke-width="1"/><polygon fill="#A80036" stroke="#A80036" stroke-width="1" points="614.626 563.661 607.418 563.851 604.82 570.578 612.029 570.388 614.626 563.661"/><text x="537" y="618.568" fill="#000" font-family="sans-serif" font-size="13" lengthAdjust="spacingAndGlyphs" textLength="62">«ordered»</text><text x="598.98" y="566.538" fill="#000" font-family="sans-serif" font-size="13" lengthAdjust="spacingAndGlyphs" textLength="8">1</text><text x="404.879" y="662.346" fill="#000" font-family="sans-serif" font-size="13" lengthAdjust="spacingAndGlyphs" textLength="22">1..*</text><path fill="none" stroke="#A80036" stroke-dasharray="7 7" stroke-width="1" d="M1006,555.7961 C1006,583.0523 1006,620.2657 1006,649.8569"/><polygon fill="#A80036" stroke="#A80036" stroke-width="1" points="1006 654.913 1010 645.913 1006 649.913 1002 645.913 1006 654.913"/><text x="1007" y="618.568" fill="#000" font-family="sans-serif" font-size="13" lengthAdjust="spacingAndGlyphs" textLength="45">creates</text><path fill="none" stroke="#A80036" stroke-dasharray="7 7" stroke-width="1" d="M1006,742.0308 C1006,765.8204 1006,794.7869 1006,816.5741"/><polygon fill="#A80036" stroke="#A80036" stroke-width="1" points="1006 821.669 1010 812.669 1006 816.669 1002 812.669 1006 821.669"/><text x="1007" y="788.568" fill="#000" font-family="sans-serif" font-size="13" lengthAdjust="spacingAndGlyphs" textLength="45">creates</text><path fill="none" stroke="#A80036" stroke-dasharray="7 7" stroke-width="1" d="M381,145.8939 C381,172.2918 381,209.869 381,242.8514"/><polygon fill="#A80036" stroke="#A80036" stroke-width="1" points="381 248.103 385 239.103 381 243.103 377 239.103 381 248.103"/><text x="382" y="210.568" fill="#000" font-family="sans-serif" font-size="13" lengthAdjust="spacingAndGlyphs" textLength="49">invokes</text><path fill="none" stroke="#A80036" stroke-width="1" d="M1006,398.3715 C1006,422.0644 1006,447.1056 1006,468.158"/><polygon fill="#A80036" stroke="#A80036" stroke-width="1" points="1006 481.362 1010 472.362 1006 476.362 1002 472.362 1006 481.362"/><line x1="1006" x2="1006" y1="476.362" y2="468.362" stroke="#A80036" stroke-width="1"/><polygon fill="#A80036" stroke="#A80036" stroke-width="1" points="1006 385.277 1002 391.277 1006 397.277 1010 391.277 1006 385.277"/><path fill="none" stroke="#A80036" stroke-width="1" d="M926.8999,393.7548 C910.8353,407.5557 893.4812,420.9915 876,432 C829.3481,461.3783 771.0163,484.3901 727.5155,499.2688"/><polygon fill="#A80036" stroke="#A80036" stroke-width="1" points="715.092 503.435 724.897 504.366 719.833 501.846 722.353 496.781 715.092 503.435"/><line x1="719.833" x2="727.418" y1="501.846" y2="499.302" stroke="#A80036" stroke-width="1"/><polygon fill="#A80036" stroke="#A80036" stroke-width="1" points="936.725 385.133 929.577 386.084 927.706 393.048 934.854 392.097 936.725 385.133"/><path fill="none" stroke="#A80036" stroke-dasharray="7 7" stroke-width="1" d="M857.3223,136.151 C852.4016,192.4632 834.0292,335.0403 770,432 C756.8111,451.972 737.611,469.6863 719.2253,483.8008"/><polygon fill="#A80036" stroke="#A80036" stroke-width="1" points="715.071 486.941 724.663 484.705 719.059 483.926 719.839 478.323 715.071 486.941"/><text x="841" y="319.568" fill="#000" font-family="sans-serif" font-size="13" lengthAdjust="spacingAndGlyphs" textLength="29">uses</text><path fill="none" stroke="#A80036" stroke-dasharray="7 7" stroke-width="1" d="M825.6342,136.0411 C806.0536,151.5794 782.0778,173.2812 766,197 C715.8856,270.9313 747.6537,312.8552 695,385 C662.5509,429.461 639.0019,425.2771 598,462 C588.9982,470.0624 579.6078,479.214 571.146,487.7683"/><polygon fill="#A80036" stroke="#A80036" stroke-width="1" points="567.58 491.393 576.743 487.782 571.087 487.829 571.04 482.172 567.58 491.393"/><text x="743" y="319.568" fill="#000" font-family="sans-serif" font-size="13" lengthAdjust="spacingAndGlyphs" textLength="29">uses</text><path fill="none" stroke="#A80036" stroke-dasharray="7 7" stroke-width="1" d="M876.4401,136.0246 C894.8566,161.3943 924.8341,202.6899 951.3172,239.1716"/><polygon fill="#A80036" stroke="#A80036" stroke-width="1" points="954.529 243.595 952.478 233.962 951.591 239.549 946.004 238.662 954.529 243.595"/><text x="933" y="210.568" fill="#000" font-family="sans-serif" font-size="13" lengthAdjust="spacingAndGlyphs" textLength="29">uses</text><path fill="none" stroke="#A80036" stroke-dasharray="7 7" stroke-width="1" d="M642.4294,136.2111 C646.2387,200.7307 656.6996,377.9117 661.9335,466.5608"/><polygon fill="#A80036" stroke="#A80036" stroke-width="1" points="662.24 471.752 665.702 462.531 661.945 466.76 657.716 463.003 662.24 471.752"/><text x="657" y="319.568" fill="#000" font-family="sans-serif" font-size="13" lengthAdjust="spacingAndGlyphs" textLength="29">uses</text><path fill="none" stroke="#A80036" stroke-dasharray="7 7" stroke-width="1" d="M635.1036,136.2111 C618.1182,205.9541 569.0724,407.339 549.8557,486.2441"/><polygon fill="#A80036" stroke="#A80036" stroke-width="1" points="548.634 491.262 554.65 483.464 549.817 486.404 546.877 481.571 548.634 491.262"/><text x="608" y="319.568" fill="#000" font-family="sans-serif" font-size="13" lengthAdjust="spacingAndGlyphs" textLength="29">uses</text><path fill="none" stroke="#A80036" stroke-dasharray="7 7" stroke-width="1" d="M672.4928,136.1239 C694.5516,152.3443 725.1329,173.5094 754,189 C811.0882,219.6345 831.0788,214.9712 889,244 C896.2863,247.6517 903.7249,251.5936 911.1436,255.6818"/><polygon fill="#A80036" stroke="#A80036" stroke-width="1" points="915.759 258.245 909.833 250.378 911.388 255.817 905.948 257.372 915.759 258.245"/><text x="810" y="210.568" fill="#000" font-family="sans-serif" font-size="13" lengthAdjust="spacingAndGlyphs" textLength="29">uses</text><path fill="none" stroke="#A80036" stroke-dasharray="7 7" stroke-width="1" d="M386.1947,380.733 C388.1115,405.1714 390.2742,432.7463 392.1585,456.7706"/><polygon fill="#A80036" stroke="#A80036" stroke-width="1" points="392.556 461.841 395.84 452.556 392.165 456.856 387.865 453.181 392.556 461.841"/><text x="391" y="428.568" fill="#000" font-family="sans-serif" font-size="13" lengthAdjust="spacingAndGlyphs" textLength="68">«contains»</text></g></svg>