<svg xmlns="http://www.w3.org/2000/svg" xmlns:xlink="http://www.w3.org/1999/xlink" width="568pt" height="434pt" version="1.1" viewBox="0 0 568 434" style="width:568px;height:434px"><defs><filter id="f1" width="300%" height="300%" x="-1" y="-1"><feGaussianBlur result="blurOut" stdDeviation="2"/><feColorMatrix in="blurOut" result="blurOut2" type="matrix" values="0 0 0 0 0 0 0 0 0 0 0 0 0 0 0 0 0 0 .4 0"/><feOffset dx="4" dy="4" in="blurOut2" result="blurOut3"/><feBlend in="SourceGraphic" in2="blurOut3" mode="normal"/></filter></defs><g><text x="141.5" y="20.535" fill="#000" font-family="sans-serif" font-size="14" font-weight="bold" lengthAdjust="spacingAndGlyphs" textLength="286">Loading the Groups at Application Start</text><rect width="407.5" height="75.932" x="10" y="82.977" fill="#FFF" stroke="#000" stroke-width="2" filter="url(#f1)"/><rect width="549.5" height="147.553" x="10" y="231.529" fill="#FFF" stroke="#000" stroke-width="2" filter="url(#f1)"/><line x1="105" x2="105" y1="65.977" y2="396.082" stroke="#A80036" stroke-dasharray="5 5" stroke-width="1"/><line x1="323.5" x2="323.5" y1="65.977" y2="396.082" stroke="#A80036" stroke-dasharray="5 5" stroke-width="1"/><line x1="437.5" x2="437.5" y1="65.977" y2="396.082" stroke="#A80036" stroke-dasharray="5 5" stroke-width="1"/><line x1="508.5" x2="508.5" y1="65.977" y2="396.082" stroke="#A80036" stroke-dasharray="5 5" stroke-width="1"/><rect width="166" height="30.488" x="20" y="30.488" fill="#FEFECE" stroke="#A80036" stroke-width="1.5" filter="url(#f1)"/><text x="27" y="51.023" fill="#000" font-family="sans-serif" font-size="14" lengthAdjust="spacingAndGlyphs" textLength="152">RoleAssigneeManager</text><rect width="166" height="30.488" x="20" y="395" fill="#FEFECE" stroke="#A80036" stroke-width="1.5" filter="url(#f1)"/><text x="27" y="415.535" fill="#000" font-family="sans-serif" font-size="14" lengthAdjust="spacingAndGlyphs" textLength="152">RoleAssigneeManager</text><rect width="163" height="30.488" x="240.5" y="30.488" fill="#FEFECE" stroke="#A80036" stroke-width="1.5" filter="url(#f1)"/><text x="247.5" y="51.023" fill="#000" font-family="sans-serif" font-size="14" lengthAdjust="spacingAndGlyphs" textLength="149">RoleAssigneeProvider</text><rect width="163" height="30.488" x="240.5" y="395" fill="#FEFECE" stroke="#A80036" stroke-width="1.5" filter="url(#f1)"/><text x="247.5" y="415.535" fill="#000" font-family="sans-serif" font-size="14" lengthAdjust="spacingAndGlyphs" textLength="149">RoleAssigneeProvider</text><rect width="36" height="30.488" x="417.5" y="30.488" fill="#FEFECE" stroke="#A80036" stroke-width="1.5" filter="url(#f1)"/><text x="424.5" y="51.023" fill="#000" font-family="sans-serif" font-size="14" lengthAdjust="spacingAndGlyphs" textLength="22">JPA</text><rect width="36" height="30.488" x="417.5" y="395" fill="#FEFECE" stroke="#A80036" stroke-width="1.5" filter="url(#f1)"/><text x="424.5" y="415.535" fill="#000" font-family="sans-serif" font-size="14" lengthAdjust="spacingAndGlyphs" textLength="22">JPA</text><rect width="78" height="30.488" x="467.5" y="30.488" fill="#FEFECE" stroke="#A80036" stroke-width="1.5" filter="url(#f1)"/><text x="474.5" y="51.023" fill="#000" font-family="sans-serif" font-size="14" lengthAdjust="spacingAndGlyphs" textLength="64">UserBean</text><rect width="78" height="30.488" x="467.5" y="395" fill="#FEFECE" stroke="#A80036" stroke-width="1.5" filter="url(#f1)"/><text x="474.5" y="415.535" fill="#000" font-family="sans-serif" font-size="14" lengthAdjust="spacingAndGlyphs" textLength="64">UserBean</text><rect width="407.5" height="75.932" x="10" y="82.977" fill="none" stroke="#000" stroke-width="2"/><polygon fill="#EEE" stroke="#000" stroke-width="2" points="10 82.977 84 82.977 84 89.977 74 99.977 10 99.977 10 82.977"/><text x="25" y="96.545" fill="#000" font-family="sans-serif" font-size="13" font-weight="bold" lengthAdjust="spacingAndGlyphs" textLength="29">loop</text><text x="99" y="95.611" fill="#000" font-family="sans-serif" font-size="11" font-weight="bold" lengthAdjust="spacingAndGlyphs" textLength="111">[for every provider]</text><polygon fill="#A80036" stroke="#A80036" stroke-width="1" points="312 117.287 322 121.287 312 125.287 316 121.287"/><line x1="105" x2="318" y1="121.287" y2="121.287" stroke="#A80036" stroke-dasharray="2 2" stroke-width="1"/><text x="112" y="116.856" fill="#000" font-family="sans-serif" font-size="13" lengthAdjust="spacingAndGlyphs" textLength="33">new()</text><polygon fill="#A80036" stroke="#A80036" stroke-width="1" points="116 146.598 106 150.598 116 154.598 112 150.598"/><line x1="110" x2="323" y1="150.598" y2="150.598" stroke="#A80036" stroke-dasharray="2 2" stroke-width="1"/><text x="122" y="146.166" fill="#000" font-family="sans-serif" font-size="13" lengthAdjust="spacingAndGlyphs" textLength="88">register( this )</text><polygon fill="#A80036" stroke="#A80036" stroke-width="1" points="425.5 182.908 435.5 186.908 425.5 190.908 429.5 186.908"/><line x1="105" x2="431.5" y1="186.908" y2="186.908" stroke="#A80036" stroke-dasharray="2 2" stroke-width="1"/><text x="112" y="182.477" fill="#000" font-family="sans-serif" font-size="13" lengthAdjust="spacingAndGlyphs" textLength="91">listGroupRows</text><polygon fill="#A80036" stroke="#A80036" stroke-width="1" points="116 212.219 106 216.219 116 220.219 112 216.219"/><line x1="110" x2="436.5" y1="216.219" y2="216.219" stroke="#A80036" stroke-dasharray="2 2" stroke-width="1"/><text x="122" y="211.787" fill="#000" font-family="sans-serif" font-size="13" lengthAdjust="spacingAndGlyphs" textLength="30">rows</text><rect width="549.5" height="147.553" x="10" y="231.529" fill="none" stroke="#000" stroke-width="2"/><polygon fill="#EEE" stroke="#000" stroke-width="2" points="10 231.529 84 231.529 84 238.529 74 248.529 10 248.529 10 231.529"/><text x="25" y="245.098" fill="#000" font-family="sans-serif" font-size="13" font-weight="bold" lengthAdjust="spacingAndGlyphs" textLength="29">loop</text><text x="99" y="244.164" fill="#000" font-family="sans-serif" font-size="11" font-weight="bold" lengthAdjust="spacingAndGlyphs" textLength="162">[for each group row in rows]</text><line x1="105" x2="147" y1="270.15" y2="270.15" stroke="#A80036" stroke-dasharray="2 2" stroke-width="1"/><line x1="147" x2="147" y1="270.15" y2="283.15" stroke="#A80036" stroke-dasharray="2 2" stroke-width="1"/><line x1="106" x2="147" y1="283.15" y2="283.15" stroke="#A80036" stroke-dasharray="2 2" stroke-width="1"/><polygon fill="#A80036" stroke="#A80036" stroke-width="1" points="116 279.15 106 283.15 116 287.15 112 283.15"/><text x="112" y="265.408" fill="#000" font-family="sans-serif" font-size="13" lengthAdjust="spacingAndGlyphs" textLength="205">p = providerFor( row.providerId )</text><polygon fill="#A80036" stroke="#A80036" stroke-width="1" points="312 308.15 322 312.15 312 316.15 316 312.15"/><line x1="105" x2="318" y1="312.15" y2="312.15" stroke="#A80036" stroke-dasharray="2 2" stroke-width="1"/><text x="112" y="307.719" fill="#000" font-family="sans-serif" font-size="13" lengthAdjust="spacingAndGlyphs" textLength="115">createGroup( row )</text><polygon fill="#A80036" stroke="#A80036" stroke-width="1" points="116 337.461 106 341.461 116 345.461 112 341.461"/><line x1="110" x2="323" y1="341.461" y2="341.461" stroke="#A80036" stroke-dasharray="2 2" stroke-width="1"/><text x="122" y="337.029" fill="#000" font-family="sans-serif" font-size="13" lengthAdjust="spacingAndGlyphs" textLength="37">group</text><polygon fill="#A80036" stroke="#A80036" stroke-width="1" points="496.5 366.772 506.5 370.772 496.5 374.772 500.5 370.772"/><line x1="105" x2="502.5" y1="370.772" y2="370.772" stroke="#A80036" stroke-dasharray="2 2" stroke-width="1"/><text x="112" y="366.34" fill="#000" font-family="sans-serif" font-size="13" lengthAdjust="spacingAndGlyphs" textLength="114">addGroup( group )</text></g></svg>